<svg width="87" height="87" viewBox="0 0 87 87" fill="none" xmlns="http://www.w3.org/2000/svg">
<g clip-path="url(#clip0_90_369)">
<path d="M36.2165 54.2102L35.3083 42.7981C32.1314 44.5867 29.387 47.0526 27.2699 50.0207C25.0708 53.4622 29.7776 59.3157 32.1748 61.929C32.3072 62.0747 32.4761 62.1824 32.6641 62.2409C32.852 62.2995 33.0521 62.3068 33.2438 62.2622C33.4356 62.2175 33.6119 62.1225 33.7546 61.9869C33.8973 61.8514 34.0012 61.6801 34.0556 61.491L36.2165 54.2102Z" fill="#FF6242"/>
<path d="M29.6177 52.453C31.2334 50.1315 33.2613 48.1259 35.6006 46.536L35.317 42.8073C32.14 44.596 29.3957 47.0618 27.2786 50.03C25.0707 53.4622 29.7775 59.3158 32.1748 61.9291C32.3217 62.0882 32.5131 62.1995 32.724 62.2485C30.4257 59.2782 27.8955 55.1604 29.6177 52.453Z" fill="#FF866E"/>
<path d="M36.2165 54.2102L35.3083 42.7981C32.1314 44.5867 29.387 47.0526 27.2699 50.0207C25.0708 53.4622 29.7776 59.3157 32.1748 61.929C32.3072 62.0747 32.4761 62.1824 32.6641 62.2409C32.852 62.2995 33.0521 62.3068 33.2438 62.2622C33.4356 62.2175 33.6119 62.1225 33.7546 61.9869C33.8973 61.8514 34.0012 61.6801 34.0556 61.491L36.2165 54.2102Z" stroke="#45413C" stroke-width="0.5" stroke-linecap="round" stroke-linejoin="round"/>
<path d="M48.4607 54.5275L49.942 43.1755C53.0221 45.1184 55.6361 47.7163 57.598 50.7843C59.658 54.297 54.6994 59.8713 52.1369 62.3956C51.9973 62.5345 51.8232 62.6335 51.6326 62.6826C51.442 62.7316 51.2417 62.7288 51.0525 62.6746C50.8633 62.6204 50.6919 62.5166 50.5562 62.374C50.4205 62.2314 50.3254 62.0552 50.2805 61.8635L48.4607 54.5275Z" fill="#FF6242"/>
<path d="M55.1118 53.1309C53.6179 50.7233 51.6897 48.6143 49.4254 46.911L49.9051 43.2106C52.9852 45.1535 55.5992 47.7514 57.5611 50.8194C59.6211 54.3321 54.6625 59.9064 52.1 62.4307C51.9444 62.581 51.748 62.6824 51.5353 62.7221C54.0153 59.9081 56.7144 55.8859 55.1118 53.1309Z" fill="#FF866E"/>
<path d="M48.4607 54.5275L49.942 43.1755C53.0221 45.1184 55.6361 47.7163 57.598 50.7843C59.658 54.297 54.6994 59.8713 52.1369 62.3956C51.9973 62.5345 51.8232 62.6335 51.6326 62.6826C51.442 62.7316 51.2417 62.7288 51.0525 62.6746C50.8633 62.6204 50.6919 62.5166 50.5562 62.374C50.4205 62.2314 50.3254 62.0552 50.2805 61.8635L48.4607 54.5275Z" stroke="#45413C" stroke-width="0.5" stroke-linecap="round" stroke-linejoin="round"/>
<path d="M55.2404 27.3172C55.2403 17.3212 47.5091 12.3444 44.5632 10.814C44.2163 10.6289 43.8311 10.5269 43.4381 10.516C43.0492 10.5101 42.6637 10.5894 42.3086 10.7482C39.2895 12.1284 31.3084 16.7187 30.8404 26.7389C30.1892 39.0376 36.1003 54.1803 36.1003 54.1803L48.6772 54.497C48.6772 54.497 55.2351 39.6682 55.2404 27.3172Z" fill="#E8F4FA"/>
<path d="M36.2279 28.4026C36.7058 18.7064 44.2372 14.1228 47.4677 12.5591C46.563 11.8892 45.6073 11.2911 44.6093 10.7702C44.2545 10.5858 43.8613 10.4878 43.4616 10.484C43.0618 10.4801 42.6668 10.5707 42.3086 10.7482C39.2895 12.1284 31.3084 16.7187 30.8404 26.7389C30.1892 39.0376 36.1003 54.1803 36.1003 54.1803L40.9334 54.302C39.4568 50.1119 35.7258 38.35 36.2279 28.4026Z" fill="white"/>
<path d="M44.5632 10.814C47.5091 12.3444 55.2403 17.3212 55.2404 27.3172C55.2351 39.6682 48.6772 54.497 48.6772 54.497L36.1003 54.1803C36.1003 54.1803 30.1892 39.0376 30.8404 26.7389C31.3084 16.7187 39.2895 12.1284 42.3086 10.7482C42.6637 10.5894 43.0492 10.5101 43.4381 10.516C43.8311 10.5269 44.2163 10.6289 44.5632 10.814Z" stroke="#45413C" stroke-width="0.5" stroke-linecap="round" stroke-linejoin="round"/>
<path opacity="0.15" d="M55.496 66.795C55.8444 67.1614 57.1488 66.5901 59.1223 65.2069C61.0957 63.8237 63.5766 61.7417 66.0192 59.4192C68.4617 57.0966 70.6659 54.7236 72.1466 52.8222C73.6274 50.9208 74.2636 49.6468 73.9152 49.2804C73.5668 48.914 72.2624 49.4853 70.2889 50.8685C68.3155 52.2518 65.8346 54.3337 63.392 56.6563C60.9495 58.9789 58.7454 61.3519 57.2646 63.2532C55.7838 65.1546 55.1476 66.4286 55.496 66.795Z" fill="#45413C"/>
<path d="M43.3682 45.7787C43.3224 45.5964 43.2183 45.434 43.0719 45.3162C42.9254 45.1983 42.7445 45.1315 42.5566 45.1257C42.3687 45.12 42.184 45.1757 42.0306 45.2843C41.8772 45.393 41.7634 45.5487 41.7065 45.7279C40.785 48.3521 40.2584 51.0987 40.144 53.8777C40.0779 56.8814 40.6108 59.8681 41.7116 62.6636C41.7412 62.7441 41.7941 62.814 41.8635 62.8644C41.9329 62.9148 42.0158 62.9433 42.1015 62.9464C42.1872 62.9496 42.272 62.9271 42.3449 62.8819C42.4178 62.8367 42.4756 62.7709 42.5109 62.6927C43.7584 59.97 44.4527 57.0268 44.5537 54.0336C44.5754 51.2381 44.1758 48.4552 43.3682 45.7787Z" fill="#FF6242" stroke="#45413C" stroke-width="0.5" stroke-linecap="round" stroke-linejoin="round"/>
<path d="M38.0231 29.9401C39.2982 31.281 41.0538 32.0605 42.9036 32.1071C44.7534 32.1537 46.546 31.4635 47.8869 30.1884C49.2279 28.9133 50.0074 27.1577 50.054 25.3079C50.1005 23.4581 49.4104 21.6655 48.1353 20.3245C46.8602 18.9836 45.1046 18.2041 43.2548 18.1575C41.4049 18.1109 39.6124 18.8011 38.2714 20.0762C36.9305 21.3513 36.151 23.1069 36.1044 24.9567C36.0578 26.8065 36.748 28.5991 38.0231 29.9401Z" fill="#C0DCEB" stroke="#45413C" stroke-width="0.5" stroke-linecap="round" stroke-linejoin="round"/>
<path d="M39.5807 28.4062C40.0177 28.8657 40.541 29.2347 41.1206 29.4921C41.7002 29.7495 42.3248 29.8901 42.9588 29.9061C43.5928 29.9221 44.2237 29.813 44.8156 29.5851C45.4074 29.3573 45.9486 29.0151 46.4081 28.578C46.8677 28.141 47.2367 27.6178 47.4941 27.0382C47.7514 26.4585 47.8921 25.8339 47.9081 25.1999C47.9241 24.5659 47.815 23.935 47.5871 23.3432C47.3592 22.7513 47.017 22.2102 46.58 21.7506C46.143 21.291 45.6198 20.922 45.0401 20.6647C44.4605 20.4073 43.8359 20.2666 43.2019 20.2507C42.5679 20.2347 41.937 20.3438 41.3452 20.5716C40.7533 20.7995 40.2122 21.1417 39.7526 21.5787C39.293 22.0157 38.924 22.539 38.6666 23.1186C38.4093 23.6982 38.2686 24.3229 38.2526 24.9568C38.2367 25.5908 38.3457 26.2217 38.5736 26.8136C38.8015 27.4054 39.1437 27.9466 39.5807 28.4062Z" fill="#00B8F0"/>
<path d="M38.2474 24.9567C38.2307 25.5916 38.3394 26.2235 38.5673 26.8163C38.7951 27.4091 39.1377 27.9511 39.5753 28.4114C40.013 28.8716 40.5371 29.241 41.1177 29.4984C41.6983 29.7558 42.3239 29.8962 42.9588 29.9115C43.4065 29.9123 43.8522 29.854 44.2846 29.7381L41.6954 20.468C40.7184 20.753 39.8576 21.3417 39.2377 22.1488C38.6178 22.9558 38.2709 23.9393 38.2474 24.9567Z" fill="#4ACFFF"/>
<path d="M39.5807 28.4062C40.0177 28.8657 40.541 29.2347 41.1206 29.4921C41.7002 29.7495 42.3248 29.8901 42.9588 29.9061C43.5928 29.9221 44.2237 29.813 44.8156 29.5851C45.4074 29.3573 45.9486 29.0151 46.4081 28.578C46.8677 28.141 47.2367 27.6178 47.4941 27.0382C47.7514 26.4585 47.8921 25.8339 47.9081 25.1999C47.9241 24.5659 47.815 23.935 47.5871 23.3432C47.3592 22.7513 47.017 22.2102 46.58 21.7506C46.143 21.291 45.6198 20.922 45.0401 20.6647C44.4605 20.4073 43.8359 20.2666 43.2019 20.2507C42.5679 20.2347 41.937 20.3438 41.3452 20.5716C40.7533 20.7995 40.2122 21.1417 39.7526 21.5787C39.293 22.0157 38.924 22.539 38.6666 23.1186C38.4093 23.6982 38.2686 24.3229 38.2526 24.9568C38.2367 25.5908 38.3457 26.2217 38.5736 26.8136C38.8015 27.4054 39.1437 27.9466 39.5807 28.4062Z" stroke="#45413C" stroke-width="0.5" stroke-linecap="round" stroke-linejoin="round"/>
<path d="M46.7603 70.2966C46.7286 71.5543 43.9435 76.8507 42.5014 79.5021C42.2372 79.9989 41.1688 79.945 40.9023 79.4619C39.6042 76.7504 37.0891 71.3206 37.1673 70.0011C37.1665 68.2482 39.4505 66.0764 42.0921 66.1249C44.7337 66.1735 46.8033 68.5897 46.7603 70.2966Z" fill="#FF8A14" stroke="#45413C" stroke-width="0.5" stroke-linecap="round" stroke-linejoin="round"/>
<path d="M44.1746 69.809C44.1432 70.6982 42.6835 72.9806 41.9021 72.952C41.1208 72.9233 39.7422 70.5514 39.7999 69.6899C39.9069 69.1915 40.2007 68.753 40.6208 68.4644C41.041 68.1758 41.5557 68.0589 42.0593 68.1377C42.5576 68.0983 43.0525 68.2486 43.4447 68.5585C43.837 68.8684 44.0977 69.3151 44.1746 69.809Z" fill="#FFE500" stroke="#45413C" stroke-width="0.5" stroke-linecap="round" stroke-linejoin="round"/>
<path d="M60.6422 25.9161L62.7013 26.6061C62.7828 26.6334 62.8696 26.6405 62.9545 26.627C63.0393 26.6135 63.1197 26.5797 63.1886 26.5285L64.9202 25.2327C65.0001 25.1734 65.0949 25.1376 65.194 25.1293C65.2931 25.121 65.3926 25.1406 65.4812 25.1858C65.5698 25.231 65.644 25.3001 65.6954 25.3852C65.7468 25.4704 65.7734 25.5682 65.7722 25.6677L65.7447 27.8334C65.7407 27.9193 65.7591 28.0048 65.7982 28.0814C65.8372 28.158 65.8955 28.2232 65.9674 28.2704L67.7338 29.5195C67.8138 29.5767 67.8765 29.6548 67.9149 29.7454C67.9533 29.836 67.9659 29.9354 67.9514 30.0326C67.9368 30.1299 67.8957 30.2213 67.8325 30.2967C67.7693 30.3721 67.6865 30.4285 67.5932 30.4598L65.5186 31.0997C65.4365 31.1252 65.3614 31.1693 65.2991 31.2285C65.2368 31.2878 65.189 31.3606 65.1594 31.4413L64.5228 33.5197C64.4895 33.6119 64.432 33.6935 64.3563 33.7559C64.2806 33.8182 64.1895 33.859 64.0926 33.8741C63.9957 33.8891 63.8965 33.8778 63.8055 33.8413C63.7145 33.8048 63.6349 33.7445 63.5753 33.6666L62.2799 31.9171C62.2306 31.8482 62.1652 31.7923 62.0894 31.7544C62.0136 31.7164 61.9297 31.6976 61.8449 31.6994L59.7322 31.7091C59.6334 31.7101 59.5363 31.6835 59.4517 31.6325C59.3671 31.5815 59.2983 31.508 59.253 31.4202C59.2076 31.3324 59.1876 31.2337 59.195 31.1352C59.2025 31.0367 59.2371 30.9421 59.2951 30.8621L60.5884 29.1238C60.641 29.0564 60.6762 28.977 60.6908 28.8927C60.7055 28.8084 60.6992 28.7218 60.6724 28.6405L59.9782 26.5825C59.9451 26.4898 59.939 26.3896 59.9605 26.2935C59.982 26.1975 60.0303 26.1095 60.0998 26.0397C60.1693 25.97 60.2571 25.9213 60.3531 25.8995C60.4491 25.8776 60.5493 25.8833 60.6422 25.9161Z" fill="#FFE500"/>
<path d="M61.2428 31.6932L62.0526 30.59C62.1063 30.523 62.1421 30.4436 62.1568 30.3591C62.1715 30.2746 62.1646 30.1878 62.1367 30.1067L61.4424 28.0487C61.4139 27.9541 61.4121 27.8534 61.4374 27.7579C61.4627 27.6624 61.514 27.5757 61.5856 27.5076C61.6572 27.4396 61.7463 27.3927 61.843 27.3722C61.9396 27.3518 62.0401 27.3586 62.1331 27.3919L64.183 28.0907C64.2645 28.1179 64.3514 28.1251 64.4362 28.1116C64.5211 28.0981 64.6014 28.0643 64.6704 28.0131L65.7697 27.1958L65.7897 25.6861C65.7909 25.5866 65.7643 25.4888 65.7129 25.4037C65.6615 25.3185 65.5873 25.2494 65.4987 25.2042C65.4101 25.159 65.3106 25.1394 65.2115 25.1477C65.1124 25.156 65.0176 25.1918 64.9377 25.2511L63.2061 26.5469C63.1371 26.5981 63.0568 26.6319 62.972 26.6454C62.8871 26.659 62.8002 26.6518 62.7188 26.6245L60.6596 25.9345C60.5677 25.8993 60.4678 25.8909 60.3713 25.9102C60.2748 25.9296 60.1858 25.9758 60.1145 26.0436C60.0432 26.1114 59.9926 26.198 59.9684 26.2933C59.9443 26.3887 59.9477 26.489 59.9781 26.5825L60.6724 28.6405C60.6992 28.7218 60.7055 28.8084 60.6908 28.8927C60.6761 28.977 60.6409 29.0564 60.5883 29.1238L59.2951 30.8621C59.2371 30.9421 59.2024 31.0367 59.195 31.1352C59.1876 31.2337 59.2076 31.3324 59.2529 31.4202C59.2982 31.508 59.367 31.5815 59.4517 31.6325C59.5363 31.6835 59.6334 31.71 59.7322 31.7091L61.2428 31.6932Z" fill="#FFF48C"/>
<path d="M62.7013 26.6061L60.6422 25.9161C60.5493 25.8833 60.4491 25.8776 60.3531 25.8995C60.2571 25.9213 60.1693 25.97 60.0998 26.0397C60.0303 26.1095 59.982 26.1975 59.9605 26.2935C59.939 26.3896 59.9451 26.4898 59.9782 26.5825L60.6724 28.6405C60.6992 28.7218 60.7055 28.8084 60.6908 28.8927C60.6762 28.977 60.641 29.0564 60.5884 29.1238L59.2951 30.8621C59.2371 30.9421 59.2025 31.0367 59.195 31.1352C59.1876 31.2337 59.2076 31.3324 59.253 31.4202C59.2983 31.508 59.3671 31.5815 59.4517 31.6325C59.5363 31.6835 59.6334 31.7101 59.7322 31.7091L61.8449 31.6994C61.9297 31.6976 62.0136 31.7164 62.0894 31.7544C62.1652 31.7923 62.2306 31.8482 62.2799 31.9171L63.5753 33.6666C63.6349 33.7445 63.7145 33.8048 63.8055 33.8413C63.8965 33.8778 63.9957 33.8891 64.0926 33.8741C64.1895 33.859 64.2806 33.8182 64.3563 33.7559C64.432 33.6935 64.4895 33.6119 64.5228 33.5197L65.1594 31.4413C65.189 31.3606 65.2368 31.2878 65.2991 31.2285C65.3614 31.1693 65.4365 31.1252 65.5186 31.0997L67.5932 30.4598C67.6865 30.4285 67.7693 30.3721 67.8325 30.2967C67.8957 30.2213 67.9368 30.1299 67.9514 30.0326C67.9659 29.9354 67.9533 29.836 67.9149 29.7454C67.8765 29.6548 67.8138 29.5767 67.7338 29.5195L65.9674 28.2704C65.8955 28.2232 65.8372 28.158 65.7982 28.0814C65.7591 28.0048 65.7407 27.9193 65.7447 27.8334L65.7722 25.6677C65.7734 25.5682 65.7468 25.4704 65.6954 25.3852C65.644 25.3001 65.5698 25.231 65.4812 25.1858C65.3926 25.1406 65.2931 25.121 65.194 25.1293C65.0949 25.1376 65.0001 25.1734 64.9202 25.2327L63.1886 26.5285C63.1197 26.5797 63.0393 26.6135 62.9545 26.627C62.8696 26.6405 62.7828 26.6334 62.7013 26.6061Z" stroke="#45413C" stroke-width="0.5" stroke-linecap="round" stroke-linejoin="round"/>
<path d="M64.7771 51.6213L66.1988 52.6369C66.2565 52.6745 66.3222 52.6983 66.3906 52.7063C66.4591 52.7142 66.5284 52.7062 66.5932 52.6828L68.2357 52.0679C68.3112 52.047 68.3909 52.047 68.4664 52.0679C68.5419 52.0888 68.6102 52.1298 68.6642 52.1866C68.7182 52.2433 68.7557 52.3137 68.7728 52.3901C68.7899 52.4665 68.7858 52.5462 68.7612 52.6205L68.2515 54.2976C68.2294 54.3631 68.2243 54.433 68.2368 54.501C68.2492 54.5689 68.2788 54.6326 68.3226 54.6859L69.4303 56.0352C69.4808 56.0985 69.5125 56.1746 69.5219 56.255C69.5313 56.3353 69.5179 56.4167 69.4832 56.4899C69.4486 56.563 69.3941 56.6249 69.326 56.6686C69.2579 56.7123 69.1789 56.736 69.098 56.737L67.3626 56.7562C67.2931 56.7532 67.2241 56.7692 67.1631 56.8025C67.102 56.8358 67.0512 56.8852 67.0162 56.9453L66.0449 58.3951C65.9996 58.4602 65.9373 58.5117 65.8648 58.5438C65.7922 58.5759 65.7123 58.5874 65.6336 58.5771C65.5549 58.5668 65.4806 58.535 65.4189 58.4852C65.3571 58.4354 65.3102 58.3696 65.2833 58.295L64.732 56.6271C64.7158 56.5599 64.6822 56.4981 64.6345 56.448C64.5869 56.3979 64.5269 56.3612 64.4605 56.3416L62.7825 55.8679C62.7056 55.8457 62.6363 55.8026 62.5824 55.7434C62.5285 55.6842 62.4922 55.6112 62.4774 55.5325C62.4626 55.4538 62.4699 55.3726 62.4986 55.2978C62.5273 55.2231 62.5762 55.1578 62.6398 55.1092L64.0324 54.0655C64.0871 54.0216 64.1315 53.9662 64.1625 53.9034C64.1936 53.8405 64.2106 53.7716 64.2124 53.7015L64.1655 51.9924C64.1691 51.9219 64.1898 51.8533 64.226 51.7927C64.2621 51.7321 64.3126 51.6813 64.3729 51.6446C64.4333 51.608 64.5017 51.5868 64.5721 51.5827C64.6426 51.5786 64.713 51.5919 64.7771 51.6213Z" fill="#FFE500"/>
<path d="M63.9244 56.2202L64.804 55.5592C64.8608 55.5172 64.9067 55.4622 64.938 55.3989C64.9693 55.3356 64.985 55.2658 64.984 55.1952L64.9371 53.4861C64.9331 53.4058 64.9516 53.326 64.9905 53.2556C65.0294 53.1853 65.0872 53.1272 65.1573 53.0879C65.2274 53.0485 65.3071 53.0295 65.3874 53.033C65.4677 53.0365 65.5454 53.0623 65.6118 53.1075L67.0427 54.1144C67.0967 54.156 67.1606 54.183 67.2281 54.1926C67.2956 54.2021 67.3645 54.194 67.4279 54.169L68.4624 53.7816L68.8244 52.6131C68.8491 52.5388 68.8531 52.4591 68.8361 52.3827C68.819 52.3063 68.7815 52.2359 68.7275 52.1792C68.6735 52.1224 68.6052 52.0814 68.5297 52.0605C68.4542 52.0396 68.3745 52.0396 68.299 52.0605L66.6565 52.6754C66.5917 52.6988 66.5223 52.7068 66.4539 52.6989C66.3855 52.6909 66.3198 52.6672 66.2621 52.6295L64.8312 51.6226C64.766 51.5785 64.6901 51.5531 64.6115 51.549C64.5329 51.5449 64.4547 51.5623 64.3853 51.5994C64.3159 51.6366 64.2579 51.6919 64.2177 51.7595C64.1774 51.8272 64.1564 51.9045 64.1569 51.9832L64.2038 53.6923C64.202 53.7624 64.185 53.8313 64.1539 53.8942C64.1229 53.957 64.0785 54.0124 64.0238 54.0564L62.6312 55.1C62.5676 55.1486 62.5187 55.2139 62.49 55.2886C62.4613 55.3634 62.454 55.4446 62.4688 55.5233C62.4836 55.602 62.5199 55.675 62.5738 55.7342C62.6277 55.7935 62.697 55.8365 62.7739 55.8587L63.9244 56.2202Z" fill="#FFF48C"/>
<path d="M64.7771 51.6213L66.1988 52.6369C66.2565 52.6745 66.3222 52.6983 66.3906 52.7063C66.4591 52.7142 66.5284 52.7062 66.5932 52.6828L68.2357 52.0679C68.3112 52.047 68.3909 52.047 68.4664 52.0679C68.5419 52.0888 68.6102 52.1298 68.6642 52.1866C68.7182 52.2433 68.7557 52.3137 68.7728 52.3901C68.7899 52.4665 68.7858 52.5462 68.7612 52.6205L68.2515 54.2976C68.2294 54.3631 68.2243 54.433 68.2368 54.501C68.2492 54.5689 68.2788 54.6326 68.3226 54.6859L69.4303 56.0352C69.4808 56.0985 69.5125 56.1746 69.5219 56.255C69.5313 56.3353 69.5179 56.4167 69.4832 56.4899C69.4486 56.563 69.3941 56.6249 69.326 56.6686C69.2579 56.7123 69.1789 56.736 69.098 56.737L67.3626 56.7562C67.2931 56.7532 67.2241 56.7692 67.1631 56.8025C67.102 56.8358 67.0512 56.8852 67.0162 56.9453L66.0449 58.3951C65.9996 58.4602 65.9373 58.5117 65.8648 58.5438C65.7922 58.5759 65.7123 58.5874 65.6336 58.5771C65.5549 58.5668 65.4806 58.535 65.4189 58.4852C65.3571 58.4354 65.3102 58.3696 65.2833 58.295L64.732 56.6271C64.7158 56.5599 64.6822 56.4981 64.6345 56.448C64.5869 56.3979 64.5269 56.3612 64.4605 56.3416L62.7825 55.8679C62.7056 55.8457 62.6363 55.8026 62.5824 55.7434C62.5285 55.6842 62.4922 55.6112 62.4774 55.5325C62.4626 55.4538 62.4699 55.3726 62.4986 55.2978C62.5273 55.2231 62.5762 55.1578 62.6398 55.1092L64.0324 54.0655C64.0871 54.0216 64.1315 53.9662 64.1625 53.9034C64.1936 53.8405 64.2106 53.7716 64.2124 53.7015L64.1655 51.9924C64.1691 51.9219 64.1898 51.8533 64.226 51.7927C64.2621 51.7321 64.3126 51.6813 64.3729 51.6446C64.4333 51.608 64.5017 51.5868 64.5721 51.5827C64.6426 51.5786 64.713 51.5919 64.7771 51.6213Z" stroke="#45413C" stroke-width="0.5" stroke-linecap="round" stroke-linejoin="round"/>
<path d="M17.0526 38.0956C17.5037 38.7206 17.7589 39.4656 17.7857 40.2359C17.8126 41.0062 17.6099 41.7671 17.2035 42.422C16.797 43.0769 16.2051 43.5963 15.503 43.9141C14.8008 44.232 14.02 44.334 13.2597 44.2073C12.4994 44.0805 11.794 43.7307 11.2329 43.2022C10.6718 42.6737 10.2804 41.9904 10.1085 41.2391C9.93649 40.4877 9.99167 39.7022 10.267 38.9823C10.5423 38.2624 11.0254 37.6405 11.6548 37.1956C12.4916 36.6042 13.528 36.367 14.5388 36.5355C15.5496 36.704 16.4529 37.2647 17.0526 38.0956Z" fill="#9CEB60"/>
<path d="M13.5641 39.2033C14.1404 38.805 14.8136 38.5698 15.5126 38.5225C16.2116 38.4753 16.9103 38.6177 17.5351 38.9347C17.4106 38.6357 17.2485 38.3537 17.0528 38.0956C16.4463 37.2738 15.5409 36.7236 14.5321 36.5638C13.5233 36.404 12.4922 36.6475 11.6615 37.2417C10.8307 37.8359 10.2671 38.733 10.0923 39.7393C9.91752 40.7456 10.1456 41.7802 10.7274 42.6197C11.1258 43.1447 11.6458 43.565 12.2427 43.8444C11.9127 43.0344 11.8636 42.1372 12.1031 41.296C12.3426 40.4548 12.857 39.7181 13.5641 39.2033Z" fill="#C8FFA1"/>
<path d="M17.0526 38.0956C17.5037 38.7206 17.7589 39.4656 17.7857 40.2359C17.8126 41.0062 17.6099 41.7671 17.2035 42.422C16.797 43.0769 16.2051 43.5963 15.503 43.9141C14.8008 44.232 14.02 44.334 13.2597 44.2073C12.4994 44.0805 11.794 43.7307 11.2329 43.2022C10.6718 42.6737 10.2804 41.9904 10.1085 41.2391C9.93649 40.4877 9.99167 39.7022 10.267 38.9823C10.5423 38.2624 11.0254 37.6405 11.6548 37.1956C12.4916 36.6042 13.528 36.367 14.5388 36.5355C15.5496 36.704 16.4529 37.2647 17.0526 38.0956Z" stroke="#45413C" stroke-width="0.5" stroke-linecap="round" stroke-linejoin="round"/>
<path d="M11.7896 43.6263C11.545 44.7708 11.1693 47.1974 12.3184 47.6128C13.4676 48.0283 17.4693 33.6835 16.4026 33.2071C15.3359 32.7308 14.2053 35.507 13.8206 36.5041" stroke="#45413C" stroke-width="0.5" stroke-linecap="round" stroke-linejoin="round"/>
</g>
<defs>
<clipPath id="clip0_90_369">
<rect width="61.0011" height="61.0011" fill="white" transform="translate(0 42.035) rotate(-43.5578)"/>
</clipPath>
</defs>
</svg>
